<?xml version="1.0" encoding="UTF-8"?><svg id="Layer_2" xmlns="http://www.w3.org/2000/svg" viewBox="0 0 286.86 272.77"><defs><style>.cls-1{fill:#957f48;stroke-width:0px;}</style></defs><g id="Layer_1-2"><path class="cls-1" d="M245.69,190.43c-18.83,0-43.91,10.08-72.36,22.25-3.97,1.7-5.81,6.29-4.11,10.25,1.7,3.97,6.29,5.81,10.25,4.11,20.7-8.86,49.06-20.99,66.21-20.99,14.09,0,25.55,11.46,25.55,25.54s-11.46,25.55-25.55,25.55c-11.33,0-51.64-15.6-87.2-29.37-47.43-18.36-96.47-37.35-117.32-37.35-22.7,0-41.17,18.47-41.17,41.17s18.47,41.17,41.17,41.17c18.83,0,43.91-10.08,72.36-22.25,3.97-1.7,5.81-6.29,4.11-10.25-1.7-3.97-6.29-5.81-10.25-4.11-20.7,8.86-49.06,20.99-66.21,20.99-14.09,0-25.55-11.46-25.55-25.55s11.46-25.54,25.55-25.54c17.94,0,69.92,20.12,111.68,36.29,48.9,18.93,79.54,30.42,92.84,30.42,22.7,0,41.17-18.47,41.17-41.17s-18.47-41.17-41.17-41.17Z"/><path class="cls-1" d="M107.65,84.57c1.55,0,3.13-.46,4.49-1.43,3.53-2.49,4.37-7.36,1.88-10.89-4.29-6.08-6.55-13.23-6.55-20.68,0-19.82,16.13-35.95,35.95-35.95s35.95,16.13,35.95,35.95c0,7.45-2.27,14.6-6.55,20.68-2.49,3.53-1.64,8.4,1.89,10.89,3.52,2.49,8.4,1.64,10.89-1.88,6.15-8.73,9.4-18.99,9.4-29.68,0-28.44-23.14-51.58-51.58-51.58s-51.58,23.14-51.58,51.58c0,10.69,3.25,20.95,9.41,29.68,1.52,2.16,3.94,3.31,6.39,3.31Z"/><path class="cls-1" d="M41.97,150.85c.87.77,20.86,18.19,61.6,18.19,1.82,0,3.69-.04,5.6-.11,14.42-.55,25.36-3.86,33.44-7.83,8.27,4.26,19.81,7.8,35.36,7.84h.36c35.67,0,56.68-13.04,63.48-20.78,2.85-3.24,2.56-8.21-.68-11.06-3.24-2.85-8.14-2.57-10.99.67-.04.04-3.68,3.93-11.81,7.76-7.55,3.56-20.6,7.78-39.99,7.78-.11,0-.22,0-.33,0-7.82-.02-14.57-1.08-20.29-2.84,7.79-7.75,12.14-17.17,12.06-26.42-.12-14.15-10.42-23.87-25.67-24.2-.11,0-.5,0-.92,0-15.44.13-26.19,10.43-26.14,25.05.03,8.64,3.93,17.61,10.68,24.99-6.5,2.05-13.27,3.19-19.15,3.42-37.74,1.44-56.06-14-56.19-14.12-3.22-2.87-8.16-2.59-11.03.62-2.87,3.22-2.59,8.16.62,11.03ZM142.79,142.8c-6.85-5.52-10.11-12.29-10.13-17.95-.01-4.24,1.82-9.3,10.65-9.38h.48c4.69.1,10.3,1.69,10.36,8.71.06,7.74-4.58,13.95-11.36,18.62Z"/></g></svg>