<?xml version="1.0" encoding="UTF-8"?><svg id="Layer_2" xmlns="http://www.w3.org/2000/svg" viewBox="0 0 359.58 316.15"><defs><style>.cls-1{fill:#957f48;stroke-width:0px;}</style></defs><g id="Layer_1-2"><path class="cls-1" d="M261.73,152.59c-15.09,0-35.18,8.08-57.98,17.83-3.18,1.36-4.65,5.04-3.29,8.22,1.36,3.18,5.04,4.65,8.22,3.29,16.59-7.1,39.3-16.82,53.05-16.82,11.29,0,20.47,9.18,20.47,20.47s-9.18,20.47-20.47,20.47c-9.08,0-41.38-12.5-69.87-23.53-38-14.71-77.3-29.92-94.01-29.92-18.19,0-32.99,14.8-32.99,32.99s14.8,32.99,32.99,32.99c15.09,0,35.18-8.07,57.98-17.83,3.18-1.36,4.65-5.04,3.29-8.22-1.36-3.18-5.04-4.65-8.22-3.29-16.59,7.1-39.31,16.82-53.05,16.82-11.29,0-20.47-9.18-20.47-20.47s9.18-20.47,20.47-20.47c14.37,0,54.28,15.45,89.49,29.08,39.18,15.17,63.74,24.38,74.39,24.38,18.19,0,32.99-14.8,32.99-32.99s-14.8-32.99-32.99-32.99Z"/><path class="cls-1" d="M151.12,67.76c1.25,0,2.5-.37,3.6-1.14,2.83-1.99,3.5-5.9,1.51-8.72-3.43-4.87-5.25-10.6-5.25-16.57,0-15.88,12.92-28.81,28.81-28.81s28.81,12.92,28.81,28.81c0,5.97-1.82,11.7-5.25,16.57-1.99,2.83-1.32,6.73,1.51,8.72,2.83,1.99,6.73,1.32,8.72-1.51,4.93-6.99,7.54-15.22,7.54-23.78,0-22.79-18.54-41.33-41.33-41.33s-41.33,18.54-41.33,41.33c0,8.56,2.61,16.79,7.54,23.78,1.22,1.73,3.15,2.65,5.12,2.65Z"/><path class="cls-1" d="M98.5,120.87c.69.62,16.71,14.57,49.36,14.57,1.46,0,2.96-.03,4.49-.09,11.55-.44,20.32-3.09,26.79-6.28,6.63,3.42,15.88,6.25,28.33,6.28.1,0,.19,0,.29,0,28.58,0,45.42-10.45,50.87-16.65,2.28-2.6,2.05-6.58-.54-8.86-2.59-2.28-6.53-2.06-8.81.54-.03.03-2.95,3.15-9.47,6.22-6.05,2.85-16.51,6.24-32.04,6.24h-.26c-6.27-.02-11.68-.86-16.26-2.27,6.25-6.21,9.73-13.76,9.67-21.17-.09-11.34-8.35-19.13-20.54-19.39-.09,0-.41,0-.77,0-12.37.11-20.98,8.36-20.95,20.07.02,6.92,3.15,14.11,8.56,20.03-5.2,1.65-10.63,2.56-15.34,2.74-15.84.61-27.25-2.52-34.04-5.24-7.33-2.94-10.99-6.07-10.99-6.07-2.58-2.3-6.54-2.08-8.84.5-2.3,2.58-2.08,6.54.5,8.84ZM179.28,114.42c-5.49-4.42-8.1-9.85-8.12-14.38-.02-4.87,2.94-7.47,8.53-7.52h.39c3.76.08,8.25,1.35,8.3,6.98.05,6.21-3.67,11.18-9.1,14.92Z"/><path class="cls-1" d="M3.61,316.15c-.66,0-1.34-.27-2.05-.82-.71-.55-1.07-1.37-1.07-2.46v-.98c0-2.19,1.04-3.28,3.12-3.28h13.45c2.18,0,3.66-.38,4.43-1.15.76-.76,1.15-1.8,1.15-3.12v-2.46c0-1.75-.22-2.98-.66-3.69-.44-.71-1.31-1.34-2.62-1.89l-10.33-3.77c-3.28-1.2-5.6-2.76-6.97-4.67-1.37-1.91-2.05-4.56-2.05-7.95,0-3.94,1.07-6.91,3.2-8.94,2.13-2.02,5.17-3.03,9.1-3.03h12.63c1.09,0,1.88.38,2.38,1.15.49.77.74,1.48.74,2.13v.98c0,2.19-1.04,3.28-3.12,3.28h-12.63c-1.97,0-3.25.36-3.85,1.07-.6.71-.9,1.45-.9,2.21v2.29c0,1.09.22,1.89.66,2.38.44.49,1.48,1.07,3.12,1.72l10.33,4.1c3.28,1.31,5.46,3.14,6.56,5.49,1.09,2.35,1.64,5.39,1.64,9.1,0,4.26-1.09,7.38-3.28,9.35-2.19,1.97-5.36,2.95-9.51,2.95H3.61Z"/><path class="cls-1" d="M46.57,296.15v5.74c0,4.48,1.97,6.72,5.9,6.72h16.56c2.19,0,3.28,1.09,3.28,3.28v.98c0,1.09-.36,1.91-1.07,2.46-.71.55-1.45.82-2.21.82h-16.56c-4.16,0-7.41-1.28-9.76-3.85-2.35-2.57-3.53-5.98-3.53-10.25v-20c0-4.26,1.17-7.68,3.53-10.25,2.35-2.57,5.6-3.85,9.76-3.85h7.05c4.26,0,7.54,1.29,9.84,3.85,2.3,2.57,3.44,5.98,3.44,10.25v10.66c0,.77-.25,1.53-.74,2.3-.49.77-1.29,1.15-2.38,1.15h-23.12ZM52.47,275.49c-3.94,0-5.9,2.19-5.9,6.56v6.56h18.86v-6.56c0-4.37-1.97-6.56-5.9-6.56h-7.05Z"/><path class="cls-1" d="M95.27,275.49c-1.64,0-2.98.63-4.02,1.89-1.04,1.26-1.56,3.09-1.56,5.49v29.84c0,.88-.25,1.67-.74,2.38-.49.71-1.23,1.07-2.21,1.07h-.98c-1.09,0-1.83-.41-2.21-1.23-.38-.82-.57-1.56-.57-2.21v-41.49c0-.66.19-1.37.57-2.13.38-.76,1.12-1.15,2.21-1.15h.98c1.31,0,2.19.55,2.62,1.64.76-.44,1.64-.82,2.62-1.15s2.13-.49,3.44-.49h2.79c.87,0,1.58.36,2.13,1.07.55.71.82,1.45.82,2.21v.98c0,1.09-.3,1.91-.9,2.46-.6.55-1.29.82-2.05.82h-2.95Z"/><path class="cls-1" d="M158.56,316.15c-1.42,0-2.35-.49-2.79-1.48-1.86.98-4.16,1.48-6.89,1.48h-5.74c-4.04,0-7.3-1.28-9.76-3.85-2.46-2.57-3.69-5.98-3.69-10.25v-30.83c0-.87.3-1.64.9-2.3.6-.66,1.39-.98,2.38-.98h1.31c.98,0,1.75.38,2.3,1.15.55.77.82,1.48.82,2.13v30.66c0,4.48,1.91,6.72,5.74,6.72h5.74c4.26,0,6.39-2.08,6.39-6.23v-31.16c0-.87.27-1.64.82-2.3.55-.66,1.37-.98,2.46-.98h.98c1.09,0,1.89.38,2.38,1.15.49.77.74,1.48.74,2.13v41.49c0,.77-.25,1.53-.74,2.3-.49.77-1.29,1.15-2.38,1.15h-.98Z"/><path class="cls-1" d="M202.5,316.15c-.98,0-1.75-.33-2.3-.98-.55-.66-.82-1.48-.82-2.46v-30.66c0-4.37-1.91-6.56-5.74-6.56h-5.9c-4.26,0-6.4,2.08-6.4,6.23v30.99c0,.98-.27,1.8-.82,2.46-.55.66-1.31.98-2.3.98h-1.15c-1.09,0-1.89-.38-2.38-1.15-.49-.76-.74-1.53-.74-2.3v-41.49c0-.66.25-1.37.74-2.13.49-.76,1.28-1.15,2.38-1.15h1.15c1.31,0,2.24.49,2.79,1.48,1.64-.98,3.88-1.48,6.72-1.48h5.9c4.04,0,7.27,1.29,9.68,3.85,2.4,2.57,3.61,5.98,3.61,10.25v30.66c0,.98-.27,1.8-.82,2.46-.55.66-1.37.98-2.46.98h-1.15Z"/><path class="cls-1" d="M219.88,260.55c-.33,0-.63-.38-.9-1.15-.27-.76-.41-1.53-.41-2.3v-3.76c0-.87.14-1.66.41-2.38.27-.71.57-1.07.9-1.07h4.59c.44,0,.79.36,1.07,1.07.27.71.41,1.5.41,2.38v3.76c0,.77-.14,1.53-.41,2.3-.27.77-.63,1.15-1.07,1.15h-4.59ZM219.88,316.15c-.33,0-.63-.38-.9-1.15-.27-.76-.41-1.53-.41-2.3v-42.8c0-.87.14-1.66.41-2.38.27-.71.57-1.07.9-1.07h4.59c.44,0,.79.36,1.07,1.07.27.71.41,1.5.41,2.38v42.8c0,.77-.14,1.53-.41,2.3-.27.77-.63,1.15-1.07,1.15h-4.59Z"/><path class="cls-1" d="M266.12,316.15c-1.42,0-2.35-.55-2.79-1.64-1.86,1.09-4.1,1.64-6.72,1.64h-5.9c-4.16,0-7.41-1.28-9.76-3.85-2.35-2.57-3.53-6.15-3.53-10.74v-20.66c0-4.59,1.17-8.14,3.53-10.66,2.35-2.51,5.6-3.77,9.76-3.77h5.9c2.4,0,4.54.49,6.4,1.48v-14.76c0-.76.22-1.53.66-2.29.44-.76,1.26-1.15,2.46-1.15h.98c2.19,0,3.28,1.15,3.28,3.44v59.52c0,2.3-1.09,3.44-3.28,3.44h-.98ZM263.01,280.57c0-4.26-2.19-6.39-6.56-6.39h-5.74c-3.94,0-5.9,2.24-5.9,6.72v20.5c0,4.59,1.97,6.89,5.9,6.89h5.74c4.37,0,6.56-2.07,6.56-6.23v-21.48Z"/><path class="cls-1" d="M311.21,316.15c-1.42,0-2.35-.49-2.79-1.48-2.19.98-4.43,1.48-6.72,1.48h-5.9c-4.16,0-7.41-1.28-9.76-3.85-2.35-2.57-3.53-5.98-3.53-10.25v-20c0-4.26,1.17-7.68,3.53-10.25,2.35-2.57,5.6-3.85,9.76-3.85h16.4c1.09,0,1.91.33,2.46.98.55.66.82,1.42.82,2.3v41.49c0,.98-.27,1.8-.82,2.46-.55.66-1.37.98-2.46.98h-.98ZM308.26,280.57c0-.98-.06-1.53-.16-1.64v-.98c.11-.44.03-.93-.25-1.48-.27-.55-1.07-.87-2.38-.98-.11-.11-.38-.16-.82-.16-.33,0-.55.06-.66.16-.44,0-1.23.03-2.38.08-1.15.06-3.09.03-5.82-.08-3.94,0-5.9,2.19-5.9,6.56v19.84c0,4.48,1.97,6.72,5.9,6.72h5.74c4.37,0,6.56-2.08,6.56-6.23,0-6.99.03-12.08.08-15.25.05-3.17.08-5.36.08-6.56Z"/><path class="cls-1" d="M355.32,316.15c-1.42,0-2.35-.55-2.79-1.64-1.86,1.09-4.1,1.64-6.72,1.64h-5.9c-4.16,0-7.41-1.28-9.76-3.85-2.35-2.57-3.53-6.15-3.53-10.74v-20.66c0-4.59,1.17-8.14,3.53-10.66,2.35-2.51,5.6-3.77,9.76-3.77h5.9c2.4,0,4.54.49,6.4,1.48v-14.76c0-.76.22-1.53.66-2.29.44-.76,1.26-1.15,2.46-1.15h.98c2.19,0,3.28,1.15,3.28,3.44v59.52c0,2.3-1.09,3.44-3.28,3.44h-.98ZM352.21,280.57c0-4.26-2.19-6.39-6.56-6.39h-5.74c-3.94,0-5.9,2.24-5.9,6.72v20.5c0,4.59,1.97,6.89,5.9,6.89h5.74c4.37,0,6.56-2.07,6.56-6.23v-21.48Z"/></g></svg>